<svg width="456" height="36" viewBox="0 0 456 36" fill="none" xmlns="http://www.w3.org/2000/svg">
<g clip-path="url(#clip0_115_11)">
<path d="M0 36V35.4115H1.66175C4.40363 35.4115 4.90215 34.4796 4.90215 32.763V3.77663C4.90215 1.66763 4.25407 1.12811 1.66175 1.12811H0V0.539551H14.1248V1.16081H12.2803C9.78769 1.16081 9.13961 1.97824 9.13961 3.80931V32.7957C9.13961 34.6104 9.88739 35.4442 12.2803 35.4442H14.1248V36.0327L0 36ZM27.5684 36L10.6186 17.3625L18.7445 9.90742C23.3309 5.68943 25.325 3.62947 25.325 2.45235C25.325 1.1281 23.7297 1.12811 23.1315 1.12811H21.3368V0.539551H33.7999V1.16081H32.5038C31.0082 1.16081 29.1138 1.79841 24.6271 5.52593L14.0085 15.1881L30.061 32.6976C30.7831 33.6134 31.7148 34.3485 32.7804 34.8429C33.846 35.3372 35.0153 35.5769 36.1928 35.5423V36.0327L27.5684 36Z" fill="#E5E2DF"/>
<path d="M83.7022 36V35.4115H85.447C86.3444 35.4115 87.8898 35.4115 87.8898 33.8911C87.8898 33.3025 87.4411 31.9783 83.8019 21.6295H71.048L69.3031 26.0436C68.4723 28.1036 67.1096 31.4878 67.1096 33.0573C67.047 33.5935 67.1916 34.1334 67.5149 34.5695C67.8381 35.0057 68.3163 35.3062 68.8545 35.4115H71.0978V36H61.3766V35.4115H62.8722C64.7167 34.1363 66.8604 30.5069 71.0978 19.6186L75.435 8.0927C76.3323 5.73848 77.3294 3.13901 78.3763 0.539551H79.5727L91.9278 32.2235C92.5759 33.9401 93.3735 35.4115 95.9659 35.4115H96.8632V36H83.7022ZM77.3709 4.85563C75.2771 10.3488 73.3329 15.4823 71.2391 21.0409H83.5526L77.3709 4.85563Z" fill="#E5E2DF"/>
<path d="M155.041 36V35.4115H156.703C159.245 35.4115 160.026 34.872 160.026 32.763V3.38425L145.37 30.2126H144.323L129.517 3.18807V23.624C129.517 30.981 130.347 34.169 131.178 35.3951H134.269V35.9837H124.083V35.3951H127.124C127.871 34.2671 128.785 31.6676 128.785 22.1036V3.53138C128.785 1.66762 127.888 1.12811 126.642 1.12811H124.049V0.539551H132.724L146.732 26.0436C151.319 17.5586 156.055 9.02456 160.641 0.539551H169.216V1.16081H167.471C165.626 1.16081 164.23 1.16081 164.23 3.71122V32.7957C164.23 34.7085 164.629 35.4442 167.421 35.4442H169.216V36.0327L155.041 36Z" fill="#E5E2DF"/>
<path d="M226.421 0.539551L226.87 7.94554H226.272L225.723 3.85835C224.328 2.09268 218.844 1.11177 213.559 1.11177C208.973 1.11177 208.026 1.55317 208.026 3.80931V17.1009H210.867C220.539 17.1009 220.589 15.2371 220.589 13.9619V12.8502H221.187V21.9728H220.589V20.7793C220.589 19.4551 220.539 17.7385 210.867 17.7385H208.026V32.7957C208.026 35.1009 209.472 35.4442 211.216 35.4442C215.045 35.489 218.869 35.1604 222.633 34.4633C225.125 33.7766 226.787 32.4033 227.418 30.6867L227.967 28.4796H228.565L227.119 36.0327H198.762V35.4442H200.506C203.198 35.4442 203.747 34.8066 203.747 32.7957V3.77663C203.747 1.4224 202.351 1.12811 200.506 1.12811H198.762V0.539551H226.421Z" fill="#E5E2DF"/>
<path d="M271.945 21.7766C269.934 21.8097 267.927 21.6122 265.963 21.188V32.763C265.963 34.8229 266.461 35.4115 269.103 35.4115H270.948V36H256.74V35.4115H258.485C261.127 35.4115 261.725 34.7739 261.725 32.763V3.77659C261.725 1.71664 261.077 1.12807 258.485 1.12807H256.74V0.539513H262.149C265.29 0.490466 269.377 0 272.418 0C282.987 0 286.078 5.5913 286.078 10.4959C286.103 16.3815 281.068 21.7766 271.945 21.7766ZM271.646 0.588557C269.668 0.600101 267.721 1.07063 265.963 1.96187V20.6485C267.873 21.0557 269.825 21.2368 271.779 21.188C277.595 21.188 281.5 17.4605 281.5 10.4959C281.467 4.02182 277.827 0.588557 271.646 0.588557Z" fill="#E5E2DF"/>
<path d="M340.941 8.43601H340.342L339.944 4.65945C337.85 1.12811 332.914 1.12811 327.58 1.12811C325.038 1.12811 324.539 1.94555 324.539 2.76299V32.7793C324.539 34.9374 325.37 35.4279 327.73 35.4279H329.824V36.0164H315.325V35.4279H317.119C319.612 35.4279 320.31 34.8883 320.31 32.7793V3.77663C320.31 1.91287 319.662 1.12811 317.119 1.12811H315.325V0.539551H340.401L340.941 8.43601Z" fill="#E5E2DF"/>
<path d="M396.277 0.539551L396.725 7.94554H396.127L395.579 3.85835C394.183 2.09268 388.699 1.11177 383.415 1.11177C378.828 1.11177 377.881 1.55317 377.881 3.80931V17.1009H380.723C390.394 17.1009 390.444 15.2371 390.444 13.9619V12.8502H391.042V21.9728H390.444V20.7793C390.444 19.4551 390.394 17.7385 380.723 17.7385H377.881V32.7957C377.881 35.1009 379.327 35.4442 381.072 35.4442C384.901 35.489 388.725 35.1604 392.488 34.4633C394.981 33.7766 396.642 32.4033 397.274 30.6867L397.822 28.4796H398.412L396.966 36.0327H368.659V35.4442H370.403C373.095 35.4442 373.644 34.8066 373.644 32.7957V3.77663C373.644 1.4224 372.248 1.12811 370.403 1.12811H368.659V0.539551H396.277Z" fill="#E5E2DF"/>
<path d="M441.842 21.7766C439.831 21.8097 437.824 21.6122 435.86 21.188V32.763C435.86 34.8229 436.358 35.4115 439 35.4115H440.845V36H426.662V35.4115H428.407C431.049 35.4115 431.647 34.7739 431.647 32.763V3.77659C431.647 1.71664 430.999 1.12807 428.407 1.12807H426.662V0.539513H432.096C435.236 0.490466 439.324 0 442.365 0C452.934 0 456.025 5.5913 456.025 10.4959C456 16.3815 450.965 21.7766 441.842 21.7766ZM441.543 0.588557C439.565 0.600101 437.618 1.07063 435.86 1.96187V20.6485C437.77 21.0557 439.722 21.2368 441.676 21.188C447.492 21.188 451.397 17.4605 451.397 10.4959C451.364 4.02182 447.724 0.588557 441.543 0.588557Z" fill="#E5E2DF"/>
</g>
<defs>
<clipPath id="clip0_115_11">
<rect width="456" height="36" fill="white"/>
</clipPath>
</defs>
</svg>
