<svg width="200" height="40" viewBox="0 0 200 40" fill="none" xmlns="http://www.w3.org/2000/svg">
<g clip-path="url(#clip0_115_56)">
<path d="M109.101 16.8141V14.3876H99.0751V8.81407H115.798V23.0737C115.697 23.0737 115.6 23.0955 115.505 23.0955C108.179 23.0955 100.856 23.0955 93.5292 23.0955C90.8836 23.0955 88.2821 22.6776 85.8504 21.5361C82.2895 19.8519 80.2856 17.0262 79.8735 13.087C79.603 10.57 79.9081 8.1435 81.1507 5.91348C82.4782 3.51816 84.5513 2.04916 87.0647 1.15091C89.3737 0.324401 91.7833 0.0717726 94.2024 0.0717726H113.634C113.747 0.0717726 115.678 0.0717688 115.814 0.0873633V6.32518H94.863C93.5074 6.27739 92.1511 6.40106 90.827 6.69321C89.4712 7.03941 88.2066 7.60081 87.6215 8.96377C86.769 10.9412 86.7407 12.9497 87.9612 14.8148C88.5904 15.7692 89.6033 16.1872 90.6666 16.4772C91.8607 16.7698 93.0891 16.9019 94.3188 16.8702H108.729C108.84 16.8702 108.953 16.8702 109.101 16.8702M32.895 16.8702H6.8703V14.4125H32.895V8.78599H6.86715V6.29087H32.895V0.0530504H0.452988C0.301992 0.0530504 0.138413 0.0530504 0 0.0530504V23.0987H32.895V16.8702ZM156.447 16.8328H130.422V14.3751H156.447V8.74857H130.419V6.25344H156.447V0.015625H124.015C123.864 0.015625 123.7 0.015625 123.562 0.015625V23.0612H156.447V16.8328ZM67.1962 0.0374596V14.9209C67.0232 14.8117 66.8973 14.7369 66.7747 14.6558C59.6496 9.84331 52.364 4.85305 45.2326 0.0561723L45.198 0.0281033H38.6391C38.6391 7.71309 38.6391 15.4823 38.6391 23.108H45.4591V8.07177L68.0078 23.133C69.8952 23.133 71.7418 23.108 73.6355 23.108H74.0256V0.0281033L67.1962 0.0374596ZM199.827 9.4129C200.212 11.6148 199.985 13.8792 199.169 15.9626C198.053 18.7291 195.97 20.5474 193.211 21.664C190.654 22.6995 187.961 23.0113 185.224 23.0113C181.563 23.0113 177.901 23.0113 174.239 22.9926C171.559 22.9677 168.942 22.5622 166.488 21.4332C162.811 19.749 160.747 16.9139 160.307 12.9591C160.014 10.7772 160.333 8.55752 161.229 6.54351C162.399 4.00472 164.412 2.33298 167.001 1.28502C168.719 0.602657 170.532 0.18204 172.377 0.0374596H187.76C190.292 0.224594 192.727 0.814071 194.948 2.13649C197.738 3.78951 199.352 6.23785 199.827 9.38483M192.491 13.1275C192.699 12.2007 192.733 11.2437 192.589 10.3049C192.509 9.52692 192.214 8.78582 191.737 8.16336C191.26 7.54091 190.618 7.0613 189.883 6.77743C188.627 6.26903 187.28 6.01556 185.923 6.032C182.051 6.00497 178.178 6.00497 174.302 6.032C173.098 6.03098 171.902 6.22374 170.76 6.60276C169.143 7.1548 168.027 8.16222 167.646 9.85266C167.424 10.8511 167.412 11.8842 167.611 12.8874C167.716 13.5848 167.999 14.2442 168.433 14.803C168.867 15.3619 169.437 15.8018 170.09 16.0811C171.186 16.5824 172.375 16.8501 173.582 16.8671C174.133 16.8671 174.686 16.8858 175.24 16.8858H186.615C187.567 16.8301 188.508 16.6519 189.415 16.3556C191.003 15.816 192.098 14.8149 192.482 13.1618M50.0896 39.8254H58.9921V38.6995H51.3479V37.2897H58.0798V36.2418H51.3479V34.8258H58.9921V33.7154H50.0896V39.8254ZM81.179 34.8351V33.731H72.2671V39.8378H81.179V38.7026H73.5443V37.2897H80.2888V36.2449H73.5569V34.832L81.179 34.8351ZM137.607 33.7279H128.699V39.8347H137.607V38.7088H129.966V37.2897H136.701V36.2542H129.973V34.8414H137.607V33.7279ZM97.9552 39.9969C98.8707 39.9283 99.7829 39.9283 100.676 39.7848C102.186 39.5478 103.105 38.6308 103.287 37.2211C103.47 35.8113 102.935 34.5981 101.504 33.9961C100.906 33.749 100.264 33.6228 99.6162 33.625C98.4984 33.6063 97.3838 33.6063 96.2723 33.625C95.877 33.6343 95.4837 33.6844 95.0989 33.7747C92.9441 34.2675 91.9343 36.2917 92.8969 38.2067C93.1205 38.6385 93.4499 39.0076 93.8551 39.2802C94.2602 39.5527 94.728 39.7198 95.2153 39.7661C96.1181 39.9065 97.0398 39.9127 97.949 39.9813M97.949 34.701C98.6914 34.7384 99.44 34.7384 100.176 34.8258C101.148 34.9349 101.768 35.5057 101.9 36.3072C102.123 37.6297 101.45 38.5373 100.094 38.7119C99.7025 38.752 99.3087 38.7718 98.9147 38.7712C98.0591 38.7712 97.2003 38.7961 96.3446 38.7712C95.9103 38.7544 95.4809 38.6734 95.0706 38.531C94.2653 38.2472 93.9067 37.6266 93.9224 36.694C93.908 36.3184 94.0171 35.9482 94.2333 35.6394C94.4494 35.3306 94.761 35.0997 95.1209 34.9817C95.6419 34.8104 96.1893 34.7323 96.7378 34.7509H97.949V34.7166M116.968 35.4433C118.374 36.8749 119.736 38.2503 121.111 39.6507L125.273 35.4402V39.8285H126.531V33.703C126.217 33.703 125.902 33.703 125.587 33.703C125.504 33.6964 125.421 33.709 125.343 33.7399C125.266 33.7707 125.196 33.8189 125.141 33.8807C123.882 35.1616 122.624 36.4403 121.366 37.717C121.284 37.8155 121.209 37.9197 121.143 38.0289C121.071 37.92 120.992 37.8159 120.907 37.717C119.648 36.4351 118.368 35.1532 117.1 33.8776C117.037 33.809 116.956 33.7217 116.88 33.7185C116.499 33.7185 116.116 33.7185 115.735 33.7185V39.8347H116.993V35.4683M38.8562 39.8316C38.9443 39.8316 39.0198 39.8472 39.0921 39.8472C40.86 39.8472 42.6248 39.8472 44.3927 39.8472C44.8142 39.8435 45.2349 39.808 45.651 39.7412C47.1924 39.4948 48.133 38.6059 48.3092 37.1743C48.4444 36.0983 48.155 35.1408 47.2365 34.4546C46.5308 33.9587 45.6821 33.7026 44.8174 33.7248C42.8985 33.703 40.9764 33.7248 39.0544 33.7248C38.99 33.7264 38.9259 33.7326 38.8625 33.7435V39.8503M40.1208 34.8601H40.3913C41.6874 34.8601 42.9866 34.8601 44.2763 34.8601C44.7729 34.8629 45.2669 34.9311 45.7454 35.0628C46.5601 35.2936 46.947 35.8924 46.9596 36.7689C46.9722 37.6453 46.5759 38.2659 45.758 38.5123C45.3146 38.6369 44.8566 38.703 44.3959 38.7088C43.0369 38.7338 41.6842 38.7088 40.3284 38.7088C40.2592 38.7088 40.1963 38.7088 40.1208 38.6901V34.8601ZM106.65 37.6952H111.664C112.188 37.7176 112.711 37.6414 113.206 37.4706C113.555 37.3492 113.857 37.1223 114.069 36.8219C114.281 36.5214 114.393 36.1625 114.389 35.7958C114.414 34.9162 114.052 34.2768 113.288 33.9743C112.907 33.8214 112.503 33.7359 112.092 33.7217C109.802 33.6936 107.512 33.703 105.225 33.703C105.178 33.703 105.128 33.703 105.065 33.703V39.8191H106.323V37.6952H106.65ZM106.336 34.8507C106.436 34.8507 106.527 34.8507 106.615 34.8507C108.298 34.8507 109.978 34.8507 111.649 34.8507C111.956 34.8525 112.262 34.8956 112.558 34.9786C112.718 35.0212 112.856 35.121 112.946 35.2586C113.036 35.3962 113.071 35.562 113.045 35.724C113.062 35.8821 113.022 36.041 112.932 36.1727C112.842 36.3044 112.709 36.4006 112.555 36.4445C112.369 36.5093 112.175 36.5451 111.979 36.5505C110.126 36.5505 108.273 36.5505 106.42 36.5505C106.398 36.5505 106.37 36.5505 106.323 36.5505L106.336 34.8507ZM139.416 39.841H140.674V35.172L140.951 35.3529C143.068 36.7564 145.201 38.1599 147.296 39.579C147.84 39.9501 148.378 39.7942 148.919 39.8441V33.7248H147.661V38.3595L147.406 38.2004C145.221 36.7449 143.033 35.2894 140.841 33.8339C140.764 33.7674 140.671 33.7213 140.571 33.6998C140.196 33.6998 139.822 33.6998 139.432 33.6998L139.416 39.841ZM59.7974 33.7061C59.8254 33.7523 59.8559 33.7971 59.8886 33.8402C61.4741 35.7989 63.0627 37.7575 64.6544 39.7162C64.7269 39.7918 64.8262 39.8365 64.9313 39.841C65.2647 39.841 65.6013 39.8566 65.9347 39.841C66.0462 39.8308 66.1501 39.781 66.2273 39.7006C67.8002 37.7731 69.373 35.8415 70.9459 33.9057C70.9868 33.8527 71.0246 33.7934 71.0875 33.703C70.5873 33.703 70.1437 33.703 69.6782 33.703C69.6112 33.6984 69.5442 33.712 69.4844 33.7422C69.4246 33.7724 69.3741 33.8181 69.3384 33.8745C68.2815 35.2125 67.2151 36.5474 66.1518 37.8823C65.9222 38.1692 65.6925 38.4624 65.444 38.7681L65.2647 38.556C64.0358 37.009 62.8037 35.462 61.5685 33.915C61.5055 33.8308 61.4112 33.7217 61.3262 33.7154C60.8355 33.6967 60.3416 33.7154 59.8068 33.7154M150.285 34.8538H154.66V39.8441H155.95V34.8538H160.323V33.731H150.275L150.285 34.8538ZM84.2241 33.7341H82.9847V39.8378H91.7172V38.7088H84.2272L84.2241 33.7341Z" fill="#E5E2DF"/>
</g>
<defs>
<clipPath id="clip0_115_56">
<rect width="200" height="40" fill="white"/>
</clipPath>
</defs>
</svg>
