<svg width="167" height="35" viewBox="0 0 167 35" fill="none" xmlns="http://www.w3.org/2000/svg">
<path d="M13.1681 23.052C13.9961 23.88 14.7781 24.754 15.4221 25.49C17.6301 27.974 18.6881 29.354 19.3321 30.228L18.9181 30.596C17.4921 29.216 15.9281 27.79 14.4561 26.594C12.5701 25.03 10.8681 23.788 9.90207 23.052C10.8681 22.316 12.5701 21.074 14.4561 19.51C15.9281 18.314 17.4921 16.888 18.9181 15.508L19.3321 15.876C18.6881 16.75 17.6301 18.13 15.4221 20.614C14.7781 21.35 13.9961 22.224 13.1681 23.052ZM0.518066 23.052C3.14007 21.396 5.90007 19.464 8.47607 17.44C11.0061 15.462 13.3981 13.392 15.3761 11.552L15.8361 11.92C14.6861 13.484 12.8001 15.738 9.62607 18.958C8.43007 20.2 6.95807 21.58 5.34807 23.052C6.95807 24.524 8.43007 25.904 9.62607 27.146C12.8001 30.366 14.6861 32.62 15.8361 34.184L15.3761 34.552C13.3981 32.712 11.0061 30.642 8.47607 28.664C5.90007 26.64 3.14007 24.708 0.518066 23.052Z" fill="#E5E2DF"/>
<path d="M53.4853 29.262L53.7613 31.746C50.3113 33.77 46.6773 34.644 42.5833 34.644C31.3133 34.644 25.6093 27.514 25.6093 17.67C25.6093 9.98798 29.6573 0.00598145 42.8133 0.00598145C45.7113 0.00598145 48.9313 0.465981 53.0253 2.44398L52.7493 5.01998C50.4033 2.30598 47.1833 0.55798 42.1233 0.55798C33.5673 0.55798 29.8873 8.51598 29.8873 17.394C29.8873 28.94 36.0053 34.092 42.5833 34.092C47.4133 34.092 50.9093 32.344 53.4853 29.262Z" fill="#E5E2DF"/>
<path d="M64.1285 34H60.9545V0.74198H81.5625L81.7005 3.22598C79.1245 1.75398 76.2265 1.29398 70.8445 1.29398C70.2005 1.29398 68.9585 1.29398 64.8645 1.29398V14.772C66.8425 14.082 69.0965 13.576 71.9945 13.576C82.0225 13.576 84.8745 18.36 84.8745 23.42C84.8745 28.25 81.7465 34.23 71.2125 34.23C70.2465 34.23 68.9125 34.138 67.6245 34.092C66.3365 34.046 65.0945 34 64.1285 34ZM80.5965 23.604C80.5965 17.256 77.2385 14.22 71.0285 14.22C69.3265 14.22 66.8885 14.542 64.8645 15.37V33.08C67.0725 33.586 69.0965 33.678 71.0285 33.678C76.5485 33.678 80.5965 29.86 80.5965 23.604Z" fill="#E5E2DF"/>
<path d="M95.4563 33.448H98.4003C102.862 33.448 109.348 33.264 113.58 31.286L113.074 34H91.5463V0.74198H112.43L112.568 3.22598C109.44 1.38598 105.438 1.29398 100.562 1.29398H95.4563V16.29H98.5383C101.344 16.29 106.266 15.876 107.6 15.6V17.44C106.266 17.21 101.344 16.842 98.5383 16.842H95.4563V33.448Z" fill="#E5E2DF"/>
<path d="M141.982 10.08C141.982 15.6 137.336 20.66 128.918 20.66C127.262 20.66 125.33 20.568 123.398 20.108V34H119.488V0.74198H119.902C122.8 0.695981 126.572 0.235981 129.378 0.235981C139.13 0.235981 141.982 5.47998 141.982 10.08ZM137.704 10.08C137.704 4.00798 134.346 0.78798 128.642 0.78798C126.94 0.78798 125.1 1.06398 123.398 1.47798V19.602C125.33 20.062 127.17 20.108 128.734 20.108C134.07 20.108 137.704 16.612 137.704 10.08Z" fill="#E5E2DF"/>
<path d="M153.672 23.052C152.844 22.224 152.062 21.35 151.418 20.614C149.21 18.13 148.152 16.75 147.508 15.876L147.922 15.508C149.348 16.888 150.912 18.314 152.384 19.51C154.27 21.074 155.972 22.316 156.938 23.052C155.972 23.788 154.27 25.03 152.384 26.594C150.912 27.79 149.348 29.216 147.922 30.596L147.508 30.228C148.152 29.354 149.21 27.974 151.418 25.49C152.062 24.754 152.844 23.88 153.672 23.052ZM166.322 23.052C163.7 24.708 160.94 26.64 158.364 28.664C155.834 30.642 153.442 32.712 151.464 34.552L151.004 34.184C152.154 32.62 154.04 30.366 157.214 27.146C158.41 25.904 159.882 24.524 161.492 23.052C159.882 21.58 158.41 20.2 157.214 18.958C154.04 15.738 152.154 13.484 151.004 11.92L151.464 11.552C153.442 13.392 155.834 15.462 158.364 17.44C160.94 19.464 163.7 21.396 166.322 23.052Z" fill="#E5E2DF"/>
</svg>
