<svg width="1303" height="101" viewBox="0 0 1303 101" fill="none" xmlns="http://www.w3.org/2000/svg">
<path d="M7.0209 2.46999H7.6809L7.4609 6.43C16.8109 1.59 26.0509 0.709998 31.1109 0.709998C51.5709 0.709998 58.0609 11.16 58.0609 19.74C58.0609 28.65 50.1409 36.79 36.1709 37.89V38.22C48.3809 39.54 61.0309 45.26 61.0309 59.56C61.0309 73.75 49.4809 83.54 29.3509 83.54C0.970899 83.54 0.420899 69.68 0.420899 67.26C0.420899 63.3 3.1709 61.21 6.3609 61.21C9.9909 61.21 11.6409 63.52 11.6409 66.6C11.6409 69.68 9.3309 71 9.3309 74.08C9.3309 78.59 16.4809 82.88 28.6909 82.88C41.8909 82.88 51.5709 74.3 51.5709 59.34C51.5709 46.69 42.2209 38.44 28.6909 38.44C26.0509 38.44 22.5309 38.88 19.8909 39.54V37.12C22.5309 37.56 25.1709 37.78 28.9109 37.78C42.5509 37.78 49.4809 30.52 49.4809 19.74C49.4809 8.52 41.7809 1.37 31.0009 1.37C21.3209 1.37 11.5309 6.09999 7.0209 16.22C6.8009 17.54 6.5809 19.74 6.3609 21.17H5.7009C6.1409 14.68 6.5809 8.85 7.0209 2.46999ZM142.597 82H114.547V81.34H118.067C120.157 81.34 123.787 81.23 123.787 77.49C123.787 75.84 122.467 72.21 114.767 49.55H86.3868L82.5368 59.67C80.8868 64.18 77.6968 71.88 77.6968 75.73C77.6968 79.47 79.6768 80.79 81.7668 81.34H86.3868V82H65.9268V81.34H69.0068C73.2968 78.7 76.8168 72.98 87.0468 45.37C90.8968 35.03 96.2868 20.18 102.777 2.46999H105.087L131.817 73.86C133.247 77.93 135.117 81.34 140.947 81.34H142.597V82ZM114.327 48.89L100.467 10.83L86.6068 48.89H114.327ZM183.326 38.44V38.77C193.446 40.75 198.176 44.49 202.466 49.66C207.306 55.27 209.836 61.76 213.466 70.89C215.116 75.18 217.096 81.56 221.056 81.56C224.356 81.56 225.456 78.37 225.676 74.74H226.336C226.116 79.8 224.136 83.54 218.196 83.54C208.626 83.54 203.786 73.09 199.056 62.09C197.406 58.35 195.976 54.94 194.106 51.31C189.596 42.62 186.296 38.88 180.136 38.88H167.376V74.96C167.376 79.58 168.806 81.34 174.636 81.34H178.376V82H147.796V81.34H151.316C157.366 81.34 158.796 79.58 158.796 74.96V9.51C158.796 4.45 156.706 3.13 151.316 3.13H147.796V2.46999H178.376V3.13H174.636C168.696 3.13 167.376 5.33 167.376 9.51V38.22H180.136C183.436 38.22 186.516 37.23 189.486 35.25C192.676 33.05 196.086 28.21 197.516 24.8L202.576 12.81C206.206 4.23 208.956 0.709998 215.226 0.709998C220.286 0.709998 222.486 4.00999 222.486 6.98C222.486 9.61999 221.056 12.15 217.536 12.15C214.456 12.15 212.916 10.06 212.916 7.86C212.916 7.08999 213.686 5.33 213.686 4.45C213.686 3.13 213.356 2.25 211.816 2.25C208.406 2.25 205.436 7.86 202.686 14.57C201.806 16.66 200.046 21.39 197.736 26.12C194.876 31.95 190.476 37.56 183.326 38.44ZM295.595 24.69C295.595 37.78 284.705 49.88 264.905 49.88C261.055 49.88 256.435 49.66 251.485 48.45V74.96C251.485 79.91 252.805 81.34 258.745 81.34H262.485V82H231.905V81.34H235.425C241.475 81.34 242.905 79.8 242.905 74.96V9.51C242.905 4.55999 241.365 3.13 235.425 3.13H231.905V2.46999H243.565C250.495 2.46999 259.405 1.26 266.115 1.26C288.885 1.26 295.595 13.69 295.595 24.69ZM286.135 24.69C286.135 9.84 277.995 1.92 264.245 1.92C260.175 1.92 255.665 2.91 251.485 5.10999V47.79C256.325 49 260.725 49.22 264.465 49.22C277.335 49.22 286.135 40.64 286.135 24.69ZM406.149 82H375.569V81.34H379.309C384.259 81.34 386.569 80.13 386.569 74.96V9.51C386.569 5.10999 384.919 3.13 379.309 3.13H375.569V2.46999H406.149V3.13H402.409C395.699 3.13 395.149 5.22 395.149 9.51V74.96C395.149 79.58 396.139 81.34 402.409 81.34H406.149V82ZM324.639 9.51V36.57C329.589 34.7 334.429 33.38 341.139 33.38C364.569 33.38 371.059 44.82 371.059 56.81C371.059 68.36 363.909 82.55 339.379 82.55C334.649 82.55 327.389 82 322.879 82H305.059V81.34H308.579C313.639 81.34 316.059 79.58 316.059 74.96V9.51C316.059 4.99999 314.299 3.13 308.579 3.13H305.059V2.46999H335.639V3.13H331.899C326.069 3.13 324.639 5.10999 324.639 9.51ZM361.599 57.25C361.599 41.74 354.009 34.04 339.269 34.04C335.089 34.04 329.589 35.14 324.639 37.23V78.7C329.039 81.12 334.099 81.89 338.939 81.89C352.029 81.89 361.599 72.54 361.599 57.25ZM413.271 2.46999H480.591L481.801 19.63H481.141L480.261 11.38C476.521 4.34 468.601 3.13 457.821 3.13C452.101 3.13 451.331 4.99999 451.331 7.08999V74.96C451.331 79.47 452.211 81.34 458.811 81.34H462.331V82H431.751V81.34H435.381C441.431 81.34 442.751 79.8 442.751 74.96V7.2C442.751 5.10999 441.981 3.13 436.151 3.13C425.371 3.13 417.671 4.34 413.931 11.38L412.941 19.63H412.281L413.271 2.46999ZM589.088 82H558.508V81.34H562.248C567.198 81.34 569.508 80.13 569.508 74.96V9.51C569.508 5.10999 567.858 3.13 562.248 3.13H558.508V2.46999H589.088V3.13H585.348C578.638 3.13 578.088 5.22 578.088 9.51V74.96C578.088 79.58 579.078 81.34 585.348 81.34H589.088V82ZM507.578 9.51V36.57C512.528 34.7 517.368 33.38 524.078 33.38C547.508 33.38 553.998 44.82 553.998 56.81C553.998 68.36 546.848 82.55 522.318 82.55C517.588 82.55 510.328 82 505.818 82H487.998V81.34H491.518C496.578 81.34 498.998 79.58 498.998 74.96V9.51C498.998 4.99999 497.238 3.13 491.518 3.13H487.998V2.46999H518.578V3.13H514.838C509.008 3.13 507.578 5.10999 507.578 9.51ZM544.538 57.25C544.538 41.74 536.948 34.04 522.208 34.04C518.028 34.04 512.528 35.14 507.578 37.23V78.7C511.978 81.12 517.038 81.89 521.878 81.89C534.968 81.89 544.538 72.54 544.538 57.25ZM599.18 2.46999H658.91L660.01 18.53H659.35L658.14 9.61999C655.61 5.10999 643.29 3.13 631.19 3.13C621.07 3.13 618.76 4.23 618.76 9.61999V39.98H625.36C646.92 39.98 647.03 35.58 647.03 32.5V30.3H647.69V50.32H647.03V47.79C647.03 44.71 646.92 40.64 625.36 40.64H618.76V74.96C618.76 80.57 622.17 81.34 626.13 81.34C635.59 81.34 645.82 80.57 650.99 79.14C656.71 77.6 660.12 74.41 661.66 70.34L662.87 65.61H663.53L660.56 82H599.18V81.34H602.7C608.97 81.34 610.18 79.8 610.18 74.96V9.51C610.18 3.79 607.1 3.13 602.7 3.13H599.18V2.46999ZM774.53 82H743.51V81.34H747.36C753.3 81.34 754.73 79.36 754.73 74.96V9.4C754.73 4.12 752.75 3.13 747.36 3.13H722.17C717.11 3.13 714.8 3.9 714.8 9.4V74.96C714.8 79.36 716.01 81.34 722.06 81.34H726.02V82H695V81.34H698.74C704.68 81.34 706.22 79.36 706.22 74.96V9.51C706.22 4.99999 705.45 3.13 698.74 3.13H695V2.46999H774.53V3.13H770.68C765.73 3.13 763.31 3.9 763.31 9.29V74.96C763.31 79.36 764.96 81.34 770.68 81.34H774.53V82ZM848.388 24.69C848.388 37.78 837.498 49.88 817.698 49.88C813.848 49.88 809.228 49.66 804.278 48.45V74.96C804.278 79.91 805.598 81.34 811.538 81.34H815.278V82H784.698V81.34H788.218C794.268 81.34 795.698 79.8 795.698 74.96V9.51C795.698 4.55999 794.158 3.13 788.218 3.13H784.698V2.46999H796.358C803.288 2.46999 812.198 1.26 818.908 1.26C841.678 1.26 848.388 13.69 848.388 24.69ZM838.928 24.69C838.928 9.84 830.788 1.92 817.038 1.92C812.968 1.92 808.458 2.91 804.278 5.10999V47.79C809.118 49 813.518 49.22 817.258 49.22C830.128 49.22 838.928 40.64 838.928 24.69ZM940.132 42.07C940.132 58.46 930.782 83.54 899.652 83.54C868.632 83.54 859.282 58.46 859.282 42.07C859.282 24.58 869.952 0.709998 899.652 0.709998C929.682 0.709998 940.132 23.26 940.132 42.07ZM930.672 42.07C930.672 18.75 919.782 1.37 899.652 1.37C879.522 1.37 868.742 17.43 868.742 42.07C868.742 62.97 878.972 82.88 899.652 82.88C920.552 82.88 930.672 62.97 930.672 42.07ZM1020.6 100.15H1019.94V95.42C1019.94 87.28 1013.89 82 997.387 82H966.477C947.227 82 944.037 88.6 943.927 95.42V100.15H943.267V81.34H949.867C952.617 81.34 956.797 76.06 958.447 73.31C963.837 64.18 966.587 52.52 968.457 41.74C970.437 30.41 971.317 16.44 971.317 12.37C971.317 6.64999 968.897 3.13 962.737 3.13H959.657V2.46999H1018.51V3.13H1013.56C1009.38 3.13 1007.51 4.34 1007.51 9.29V73.86C1007.51 78.81 1007.07 81.34 1020.6 81.34V100.15ZM998.927 73.97V9.4C998.927 5.54999 997.827 3.13 992.547 3.13H980.777C974.397 3.13 973.077 5.99 972.637 10.39C972.417 12.81 972.197 25.13 970.217 37.67C967.687 53.4 964.937 65.06 958.557 75.29C957.237 77.38 954.597 80.13 953.167 81.34C953.167 81.34 955.587 81.34 992.767 81.34C997.167 81.34 998.927 79.8 998.927 73.97ZM1098.33 82H1070.28V81.34H1073.8C1075.89 81.34 1079.52 81.23 1079.52 77.49C1079.52 75.84 1078.2 72.21 1070.5 49.55H1042.12L1038.27 59.67C1036.62 64.18 1033.43 71.88 1033.43 75.73C1033.43 79.47 1035.41 80.79 1037.5 81.34H1042.12V82H1021.66V81.34H1024.74C1029.03 78.7 1032.55 72.98 1042.78 45.37C1046.63 35.03 1052.02 20.18 1058.51 2.46999H1060.82L1087.55 73.86C1088.98 77.93 1090.85 81.34 1096.68 81.34H1098.33V82ZM1070.06 48.89L1056.2 10.83L1042.34 48.89H1070.06ZM1141.92 38.77V38.44C1134.77 37.56 1130.37 31.95 1127.51 26.12C1125.2 21.39 1123.44 16.66 1122.56 14.57C1119.81 7.86 1116.84 2.25 1113.43 2.25C1111.89 2.25 1111.56 3.13 1111.56 4.45C1111.56 5.33 1112.33 7.08999 1112.33 7.86C1112.33 10.06 1110.79 12.15 1107.71 12.15C1104.19 12.15 1102.76 9.61999 1102.76 6.98C1102.76 4.00999 1104.96 0.709998 1110.02 0.709998C1116.29 0.709998 1119.04 4.23 1122.67 12.81L1127.73 24.8C1129.16 28.21 1132.57 33.05 1135.76 35.25C1138.73 37.23 1141.81 38.22 1145.11 38.22H1151.71V9.51C1151.71 4.45 1149.62 3.13 1144.23 3.13H1140.71V2.46999H1171.29V3.13H1167.55C1161.61 3.13 1160.29 5.33 1160.29 9.51V38.22H1166.89C1170.19 38.22 1173.27 37.23 1176.24 35.25C1179.43 33.05 1182.84 28.21 1184.27 24.8L1189.33 12.81C1192.96 4.23 1195.71 0.709998 1201.98 0.709998C1207.04 0.709998 1209.24 4.00999 1209.24 6.98C1209.24 9.61999 1207.81 12.15 1204.29 12.15C1201.21 12.15 1199.67 10.06 1199.67 7.86C1199.67 7.08999 1200.44 5.33 1200.44 4.45C1200.44 3.13 1200.11 2.25 1198.57 2.25C1195.16 2.25 1192.19 7.86 1189.44 14.57C1188.56 16.66 1186.8 21.39 1184.49 26.12C1181.63 31.95 1177.23 37.56 1170.08 38.44V38.77C1180.2 40.75 1184.93 44.49 1189.22 49.66C1194.06 55.27 1196.59 61.76 1200.22 70.89C1201.87 75.18 1203.85 81.56 1207.81 81.56C1211.11 81.56 1212.21 78.37 1212.43 74.74H1213.09C1212.87 79.8 1210.89 83.54 1204.95 83.54C1195.38 83.54 1190.54 73.09 1185.81 62.09C1184.16 58.35 1182.73 54.94 1180.86 51.31C1176.35 42.62 1173.05 38.88 1166.89 38.88H1160.29V74.96C1160.29 79.58 1161.72 81.34 1167.55 81.34H1171.29V82H1140.71V81.34H1144.23C1150.28 81.34 1151.71 79.58 1151.71 74.96V38.88H1145.11C1138.95 38.88 1135.65 42.62 1131.14 51.31C1129.27 54.94 1127.84 58.35 1126.19 62.09C1121.46 73.09 1116.62 83.54 1107.05 83.54C1101.11 83.54 1099.13 79.8 1098.91 74.74H1099.57C1099.79 78.37 1100.89 81.56 1104.19 81.56C1108.15 81.56 1110.13 75.18 1111.78 70.89C1115.41 61.76 1117.94 55.27 1122.78 49.66C1127.07 44.49 1131.8 40.75 1141.92 38.77ZM1302.06 82H1271.37V81.34H1275.11C1280.72 81.34 1282.48 79.91 1282.48 74.96V11.27L1238.26 74.85C1238.26 79.69 1239.03 81.34 1245.52 81.34H1249.37V82H1218.68V81.34H1222.2C1228.69 81.34 1229.68 79.47 1229.68 74.96V9.29C1229.68 5.22 1228.58 3.13 1222.2 3.13H1218.68V2.46999H1249.37V3.13H1245.52C1238.92 3.13 1238.26 4.55999 1238.26 9.29V73.09L1282.48 9.61999C1282.48 4.78 1280.72 3.13 1275.11 3.13H1271.37V2.46999H1302.06V3.13H1298.54C1292.71 3.13 1291.06 4.55999 1291.06 9.29V74.96C1291.06 79.91 1292.49 81.34 1298.54 81.34H1302.06V82Z" fill="#638B79"/>
</svg>
