<svg width="282" height="70" viewBox="0 0 282 70" fill="none" xmlns="http://www.w3.org/2000/svg">
<path d="M2.85 0.694998H3.06L2.99 1.955C5.965 0.415 8.905 0.134999 10.515 0.134999C17.025 0.134999 19.09 3.46 19.09 6.19C19.09 9.025 16.57 11.615 12.125 11.965V12.07C16.01 12.49 20.035 14.31 20.035 18.86C20.035 23.375 16.36 26.49 9.955 26.49C0.925 26.49 0.75 22.08 0.75 21.31C0.75 20.05 1.625 19.385 2.64 19.385C3.795 19.385 4.32 20.12 4.32 21.1C4.32 22.08 3.585 22.5 3.585 23.48C3.585 24.915 5.86 26.28 9.745 26.28C13.945 26.28 17.025 23.55 17.025 18.79C17.025 14.765 14.05 12.14 9.745 12.14C8.905 12.14 7.785 12.28 6.945 12.49V11.72C7.785 11.86 8.625 11.93 9.815 11.93C14.155 11.93 16.36 9.62 16.36 6.19C16.36 2.62 13.91 0.344999 10.48 0.344999C7.4 0.344999 4.285 1.85 2.85 5.07C2.78 5.49 2.71 6.19 2.64 6.645H2.43C2.57 4.58 2.71 2.725 2.85 0.694998ZM55.9878 26H47.0628V25.79H48.1828C48.8478 25.79 50.0028 25.755 50.0028 24.565C50.0028 24.04 49.5828 22.885 47.1328 15.675H38.1028L36.8778 18.895C36.3528 20.33 35.3378 22.78 35.3378 24.005C35.3378 25.195 35.9678 25.615 36.6328 25.79H38.1028V26H31.5928V25.79H32.5728C33.9378 24.95 35.0578 23.13 38.3128 14.345C39.5378 11.055 41.2528 6.33 43.3178 0.694998H44.0528L52.5578 23.41C53.0128 24.705 53.6078 25.79 55.4628 25.79H55.9878V26ZM46.9928 15.465L42.5828 3.355L38.1728 15.465H46.9928ZM78.9471 12.14V12.245C82.1671 12.875 83.6721 14.065 85.0371 15.71C86.5771 17.495 87.3821 19.56 88.5371 22.465C89.0621 23.83 89.6921 25.86 90.9521 25.86C92.0021 25.86 92.3521 24.845 92.4221 23.69H92.6321C92.5621 25.3 91.9321 26.49 90.0421 26.49C86.9971 26.49 85.4571 23.165 83.9521 19.665C83.4271 18.475 82.9721 17.39 82.3771 16.235C80.9421 13.47 79.8921 12.28 77.9321 12.28H73.8721V23.76C73.8721 25.23 74.3271 25.79 76.1821 25.79H77.3721V26H67.6421V25.79H68.7621C70.6871 25.79 71.1421 25.23 71.1421 23.76V2.935C71.1421 1.325 70.4771 0.905 68.7621 0.905H67.6421V0.694998H77.3721V0.905H76.1821C74.2921 0.905 73.8721 1.605 73.8721 2.935V12.07H77.9321C78.9821 12.07 79.9621 11.755 80.9071 11.125C81.9221 10.425 83.0071 8.885 83.4621 7.8L85.0721 3.985C86.2271 1.255 87.1021 0.134999 89.0971 0.134999C90.7071 0.134999 91.4071 1.185 91.4071 2.13C91.4071 2.97 90.9521 3.775 89.8321 3.775C88.8521 3.775 88.3621 3.11 88.3621 2.41C88.3621 2.165 88.6071 1.605 88.6071 1.325C88.6071 0.905 88.5021 0.624999 88.0121 0.624999C86.9271 0.624999 85.9821 2.41 85.1071 4.545C84.8271 5.21 84.2671 6.715 83.5321 8.22C82.6221 10.075 81.2221 11.86 78.9471 12.14ZM124.669 7.765C124.669 11.93 121.204 15.78 114.904 15.78C113.679 15.78 112.209 15.71 110.634 15.325V23.76C110.634 25.335 111.054 25.79 112.944 25.79H114.134V26H104.404V25.79H105.524C107.449 25.79 107.904 25.3 107.904 23.76V2.935C107.904 1.36 107.414 0.905 105.524 0.905H104.404V0.694998H108.114C110.319 0.694998 113.154 0.309999 115.289 0.309999C122.534 0.309999 124.669 4.265 124.669 7.765ZM121.659 7.765C121.659 3.04 119.069 0.519998 114.694 0.519998C113.399 0.519998 111.964 0.834999 110.634 1.535V15.115C112.174 15.5 113.574 15.57 114.764 15.57C118.859 15.57 121.659 12.84 121.659 7.765ZM169.845 26H160.115V25.79H161.305C162.88 25.79 163.615 25.405 163.615 23.76V2.935C163.615 1.535 163.09 0.905 161.305 0.905H160.115V0.694998H169.845V0.905H168.655C166.52 0.905 166.345 1.57 166.345 2.935V23.76C166.345 25.23 166.66 25.79 168.655 25.79H169.845V26ZM143.91 2.935V11.545C145.485 10.95 147.025 10.53 149.16 10.53C156.615 10.53 158.68 14.17 158.68 17.985C158.68 21.66 156.405 26.175 148.6 26.175C147.095 26.175 144.785 26 143.35 26H137.68V25.79H138.8C140.41 25.79 141.18 25.23 141.18 23.76V2.935C141.18 1.5 140.62 0.905 138.8 0.905H137.68V0.694998H147.41V0.905H146.22C144.365 0.905 143.91 1.535 143.91 2.935ZM155.67 18.125C155.67 13.19 153.255 10.74 148.565 10.74C147.235 10.74 145.485 11.09 143.91 11.755V24.95C145.31 25.72 146.92 25.965 148.46 25.965C152.625 25.965 155.67 22.99 155.67 18.125ZM182.111 0.694998H203.531L203.916 6.155H203.706L203.426 3.53C202.236 1.29 199.716 0.905 196.286 0.905C194.466 0.905 194.221 1.5 194.221 2.165V23.76C194.221 25.195 194.501 25.79 196.601 25.79H197.721V26H187.991V25.79H189.146C191.071 25.79 191.491 25.3 191.491 23.76V2.2C191.491 1.535 191.246 0.905 189.391 0.905C185.961 0.905 183.511 1.29 182.321 3.53L182.006 6.155H181.796L182.111 0.694998ZM248.053 26H238.323V25.79H239.513C241.088 25.79 241.823 25.405 241.823 23.76V2.935C241.823 1.535 241.298 0.905 239.513 0.905H238.323V0.694998H248.053V0.905H246.863C244.728 0.905 244.553 1.57 244.553 2.935V23.76C244.553 25.23 244.868 25.79 246.863 25.79H248.053V26ZM222.118 2.935V11.545C223.693 10.95 225.233 10.53 227.368 10.53C234.823 10.53 236.888 14.17 236.888 17.985C236.888 21.66 234.613 26.175 226.808 26.175C225.303 26.175 222.993 26 221.558 26H215.888V25.79H217.008C218.618 25.79 219.388 25.23 219.388 23.76V2.935C219.388 1.5 218.828 0.905 217.008 0.905H215.888V0.694998H225.618V0.905H224.428C222.573 0.905 222.118 1.535 222.118 2.935ZM233.878 18.125C233.878 13.19 231.463 10.74 226.773 10.74C225.443 10.74 223.693 11.09 222.118 11.755V24.95C223.518 25.72 225.128 25.965 226.668 25.965C230.833 25.965 233.878 22.99 233.878 18.125ZM261.264 0.694998H280.269L280.619 5.805H280.409L280.024 2.97C279.219 1.535 275.299 0.905 271.449 0.905C268.229 0.905 267.494 1.255 267.494 2.97V12.63H269.594C276.454 12.63 276.489 11.23 276.489 10.25V9.55H276.699V15.92H276.489V15.115C276.489 14.135 276.454 12.84 269.594 12.84H267.494V23.76C267.494 25.545 268.579 25.79 269.839 25.79C272.849 25.79 276.104 25.545 277.749 25.09C279.569 24.6 280.654 23.585 281.144 22.29L281.529 20.785H281.739L280.794 26H261.264V25.79H262.384C264.379 25.79 264.764 25.3 264.764 23.76V2.935C264.764 1.115 263.784 0.905 262.384 0.905H261.264V0.694998ZM25.915 64H16.045V63.79H17.27C19.16 63.79 19.615 63.16 19.615 61.76V40.9C19.615 39.22 18.985 38.905 17.27 38.905H9.255C7.645 38.905 6.91 39.15 6.91 40.9V61.76C6.91 63.16 7.295 63.79 9.22 63.79H10.48V64H0.61V63.79H1.8C3.69 63.79 4.18 63.16 4.18 61.76V40.935C4.18 39.5 3.935 38.905 1.8 38.905H0.61V38.695H25.915V38.905H24.69C23.115 38.905 22.345 39.15 22.345 40.865V61.76C22.345 63.16 22.87 63.79 24.69 63.79H25.915V64ZM59.415 45.765C59.415 49.93 55.95 53.78 49.65 53.78C48.425 53.78 46.955 53.71 45.38 53.325V61.76C45.38 63.335 45.8 63.79 47.69 63.79H48.88V64H39.15V63.79H40.27C42.195 63.79 42.65 63.3 42.65 61.76V40.935C42.65 39.36 42.16 38.905 40.27 38.905H39.15V38.695H42.86C45.065 38.695 47.9 38.31 50.035 38.31C57.28 38.31 59.415 42.265 59.415 45.765ZM56.405 45.765C56.405 41.04 53.815 38.52 49.44 38.52C48.145 38.52 46.71 38.835 45.38 39.535V53.115C46.92 53.5 48.32 53.57 49.51 53.57C53.605 53.57 56.405 50.84 56.405 45.765ZM98.6064 51.295C98.6064 56.51 95.6314 64.49 85.7264 64.49C75.8564 64.49 72.8814 56.51 72.8814 51.295C72.8814 45.73 76.2764 38.135 85.7264 38.135C95.2814 38.135 98.6064 45.31 98.6064 51.295ZM95.5964 51.295C95.5964 43.875 92.1314 38.345 85.7264 38.345C79.3214 38.345 75.8914 43.455 75.8914 51.295C75.8914 57.945 79.1464 64.28 85.7264 64.28C92.3764 64.28 95.5964 57.945 95.5964 51.295ZM134.209 69.775H133.999V68.27C133.999 65.68 132.074 64 126.824 64H116.989C110.864 64 109.849 66.1 109.814 68.27V69.775H109.604V63.79H111.704C112.579 63.79 113.909 62.11 114.434 61.235C116.149 58.33 117.024 54.62 117.619 51.19C118.249 47.585 118.529 43.14 118.529 41.845C118.529 40.025 117.759 38.905 115.799 38.905H114.819V38.695H133.544V38.905H131.969C130.639 38.905 130.044 39.29 130.044 40.865V61.41C130.044 62.985 129.904 63.79 134.209 63.79V69.775ZM127.314 61.445V40.9C127.314 39.675 126.964 38.905 125.284 38.905H121.539C119.509 38.905 119.089 39.815 118.949 41.215C118.879 41.985 118.809 45.905 118.179 49.895C117.374 54.9 116.499 58.61 114.469 61.865C114.049 62.53 113.209 63.405 112.754 63.79C112.754 63.79 113.524 63.79 125.354 63.79C126.754 63.79 127.314 63.3 127.314 61.445ZM168.942 64H160.017V63.79H161.137C161.802 63.79 162.957 63.755 162.957 62.565C162.957 62.04 162.537 60.885 160.087 53.675H151.057L149.832 56.895C149.307 58.33 148.292 60.78 148.292 62.005C148.292 63.195 148.922 63.615 149.587 63.79H151.057V64H144.547V63.79H145.527C146.892 62.95 148.012 61.13 151.267 52.345C152.492 49.055 154.207 44.33 156.272 38.695H157.007L165.512 61.41C165.967 62.705 166.562 63.79 168.417 63.79H168.942V64ZM159.947 53.465L155.537 41.355L151.127 53.465H159.947ZM192.811 50.245V50.14C190.536 49.86 189.136 48.075 188.226 46.22C187.491 44.715 186.931 43.21 186.651 42.545C185.776 40.41 184.831 38.625 183.746 38.625C183.256 38.625 183.151 38.905 183.151 39.325C183.151 39.605 183.396 40.165 183.396 40.41C183.396 41.11 182.906 41.775 181.926 41.775C180.806 41.775 180.351 40.97 180.351 40.13C180.351 39.185 181.051 38.135 182.661 38.135C184.656 38.135 185.531 39.255 186.686 41.985L188.296 45.8C188.751 46.885 189.836 48.425 190.851 49.125C191.796 49.755 192.776 50.07 193.826 50.07H195.926V40.935C195.926 39.325 195.261 38.905 193.546 38.905H192.426V38.695H202.156V38.905H200.966C199.076 38.905 198.656 39.605 198.656 40.935V50.07H200.756C201.806 50.07 202.786 49.755 203.731 49.125C204.746 48.425 205.831 46.885 206.286 45.8L207.896 41.985C209.051 39.255 209.926 38.135 211.921 38.135C213.531 38.135 214.231 39.185 214.231 40.13C214.231 40.97 213.776 41.775 212.656 41.775C211.676 41.775 211.186 41.11 211.186 40.41C211.186 40.165 211.431 39.605 211.431 39.325C211.431 38.905 211.326 38.625 210.836 38.625C209.751 38.625 208.806 40.41 207.931 42.545C207.651 43.21 207.091 44.715 206.356 46.22C205.446 48.075 204.046 49.86 201.771 50.14V50.245C204.991 50.875 206.496 52.065 207.861 53.71C209.401 55.495 210.206 57.56 211.361 60.465C211.886 61.83 212.516 63.86 213.776 63.86C214.826 63.86 215.176 62.845 215.246 61.69H215.456C215.386 63.3 214.756 64.49 212.866 64.49C209.821 64.49 208.281 61.165 206.776 57.665C206.251 56.475 205.796 55.39 205.201 54.235C203.766 51.47 202.716 50.28 200.756 50.28H198.656V61.76C198.656 63.23 199.111 63.79 200.966 63.79H202.156V64H192.426V63.79H193.546C195.471 63.79 195.926 63.23 195.926 61.76V50.28H193.826C191.866 50.28 190.816 51.47 189.381 54.235C188.786 55.39 188.331 56.475 187.806 57.665C186.301 61.165 184.761 64.49 181.716 64.49C179.826 64.49 179.196 63.3 179.126 61.69H179.336C179.406 62.845 179.756 63.86 180.806 63.86C182.066 63.86 182.696 61.83 183.221 60.465C184.376 57.56 185.181 55.495 186.721 53.71C188.086 52.065 189.591 50.875 192.811 50.245ZM253.766 64H244.001V63.79H245.191C246.976 63.79 247.536 63.335 247.536 61.76V41.495L233.466 61.725C233.466 63.265 233.711 63.79 235.776 63.79H237.001V64H227.236V63.79H228.356C230.421 63.79 230.736 63.195 230.736 61.76V40.865C230.736 39.57 230.386 38.905 228.356 38.905H227.236V38.695H237.001V38.905H235.776C233.676 38.905 233.466 39.36 233.466 40.865V61.165L247.536 40.97C247.536 39.43 246.976 38.905 245.191 38.905H244.001V38.695H253.766V38.905H252.646C250.791 38.905 250.266 39.36 250.266 40.865V61.76C250.266 63.335 250.721 63.79 252.646 63.79H253.766V64Z" fill="#638B79"/>
</svg>
