<svg width="246" height="40" viewBox="0 0 246 40" fill="none" xmlns="http://www.w3.org/2000/svg">
<g clip-path="url(#clip0_115_67)">
<path d="M58.1114 8.9113C58.0554 7.85618 57.8665 6.81187 57.5491 5.80211C57.2999 4.96595 56.8517 4.19963 56.2413 3.56615C55.6309 2.93268 54.8758 2.45013 54.0379 2.15818C52.858 1.75425 51.6222 1.52859 50.373 1.48895C49.1078 1.42171 47.8426 1.44412 46.5774 1.43452C44.2889 1.43452 42.0167 1.43452 39.7381 1.4025C37.9825 1.38649 36.2269 1.30964 34.4745 1.44733C33.8043 1.49856 33.4349 1.21037 33.3532 0.544347C33.3139 0.224142 33.193 0.0448287 32.8726 0H25.5788C25.3934 0.0186428 25.2228 0.108039 25.1042 0.248856C24.9855 0.389672 24.9281 0.570591 24.9446 0.752481C24.9446 1.21037 24.67 1.39289 24.1567 1.39289C21.234 1.4089 18.3145 1.36727 15.395 1.42171C13.6067 1.45053 11.8184 1.42171 10.0269 1.42171C8.58448 1.40984 7.14411 1.5299 5.72451 1.78034C4.54166 1.95653 3.43593 2.46356 2.54023 3.24047C1.30905 4.39432 0.576563 5.96669 0.493664 7.63368C0.447894 8.20365 0.418468 8.77361 0.062117 9.26033C0.0238289 9.32514 0.00994878 9.40106 0.0228873 9.47486C0.0228873 10.2594 0.00326928 11.0439 0 11.8284V26.593C0 26.6827 -7.97725e-07 26.7723 0.0196149 26.862C0.0196149 26.862 0.019624 26.862 0.0392397 26.8428C0.0392397 23.4678 0.0392397 20.0929 0.0392397 16.7179C0.0392397 15.04 0.0392397 13.3643 0.0392397 11.6907C0.0392397 11.617 -0.0130775 11.4954 0.0915393 11.4761C0.196156 11.4569 0.241931 11.5658 0.29097 11.6459C0.343096 11.7501 0.363521 11.8668 0.349815 11.9821C0.349815 14.5245 0.375973 17.0669 0.333473 19.6093C0.290972 21.9532 0.333474 24.2971 0.294243 26.6539C0.294243 26.7275 0.294243 26.8011 0.294243 26.8748V30.5572C0.328822 31.7778 0.521059 32.9893 0.866366 34.1627C1.47445 36.1575 2.75273 37.512 4.81238 38.1332C6.04524 38.4813 7.32167 38.6591 8.60474 38.6615C10.2165 38.6872 11.8315 38.6615 13.4433 38.6808C14.9373 38.6808 16.4314 38.7192 17.9254 38.7128C20.0341 38.7128 22.1428 38.812 24.2515 38.6904C24.6013 38.6711 24.7059 38.7544 24.804 39.0938C24.8523 39.3755 25.0099 39.6281 25.2439 39.7987C25.4778 39.9694 25.77 40.0449 26.0594 40.0096C26.1519 40.016 26.2448 40.016 26.3373 40.0096C26.9177 39.9578 27.501 39.9461 28.0831 39.9744C29.6785 39.9744 31.2739 39.9744 32.8693 39.9744C33.2518 39.9744 33.3662 39.8591 33.3989 39.4973C33.4447 38.9593 33.6932 38.7384 34.2522 38.7384C35.864 38.7384 37.479 38.7384 39.0907 38.7384C41.1438 38.7384 43.1937 38.7384 45.2435 38.7064C46.7147 38.6743 48.1859 38.6872 49.6505 38.6551C50.8403 38.6691 52.0276 38.5455 53.1879 38.2869C55.3652 37.7329 56.8494 36.4521 57.5393 34.3356C57.9381 33.0915 58.1496 31.797 58.167 30.4931C58.2127 27.7938 58.2226 25.0913 58.2226 22.3919C58.2226 19.0394 58.2618 15.6868 58.1931 12.3343C58.1539 11.1752 58.1866 10.0416 58.1114 8.9113ZM24.8923 29.1034C24.8171 29.6734 24.6111 29.8847 24.0259 29.8911C22.6332 29.8911 21.2405 29.8911 19.8478 29.8911C16.9447 29.8911 14.0405 29.8911 11.1352 29.8911C10.6971 29.8911 10.259 29.9328 9.82744 29.8911C9.12455 29.8335 8.87936 29.5709 8.87282 28.8793C8.87282 27.8546 8.87282 26.8332 8.87282 25.8085C8.87282 23.7528 8.87282 21.696 8.87282 19.6382C8.87282 16.814 8.87282 13.9898 8.87282 11.1655C8.87282 10.4451 9.14744 10.1857 9.89611 10.2049C12.1846 10.2049 14.4535 10.2498 16.7322 10.2498C19.0959 10.2498 21.4595 10.2177 23.8232 10.2017C23.9311 10.2017 24.0423 10.2017 24.1502 10.2017C24.2481 10.2013 24.3452 10.2201 24.4355 10.2572C24.5259 10.2943 24.6077 10.3488 24.6761 10.4176C24.7444 10.4863 24.7979 10.5679 24.8334 10.6573C24.8689 10.7468 24.8855 10.8423 24.8825 10.9382C24.9282 11.5786 24.8825 12.1934 24.8825 12.821C24.8825 15.1969 24.8825 17.576 24.8825 19.9552C24.8825 21.4089 24.8825 22.8626 24.8825 24.3164C24.8825 25.7701 24.8661 27.2558 24.925 28.7224C24.9245 28.85 24.9136 28.9775 24.8923 29.1034ZM49.5099 26.0583C49.5099 26.9677 49.5099 27.8738 49.5328 28.7832C49.5345 28.9647 49.5181 29.146 49.4838 29.3244C49.4578 29.4911 49.368 29.6418 49.2325 29.7459C49.0971 29.8501 48.9262 29.8997 48.7547 29.8847C48.0289 29.9007 47.3032 29.8847 46.5807 29.8847C43.2623 29.8847 39.944 29.8847 36.6257 29.8847C35.8051 29.8847 34.9911 29.9552 34.1705 29.8847C34.0806 29.8913 33.9903 29.8797 33.9052 29.8505C33.8201 29.8213 33.7421 29.7752 33.6761 29.715C33.6101 29.6549 33.5575 29.582 33.5216 29.501C33.4857 29.42 33.4673 29.3326 33.4676 29.2443C33.4196 28.7762 33.4109 28.305 33.4414 27.8354C33.4414 25.2353 33.4414 22.6342 33.4414 20.032C33.4414 17.6582 33.4414 15.2876 33.4414 12.9203C33.4414 12.3567 33.4414 11.7963 33.4251 11.236C33.4225 11.129 33.4279 11.022 33.4414 10.9158C33.4401 10.8151 33.4609 10.7152 33.5024 10.6231C33.5439 10.5309 33.6053 10.4487 33.6822 10.3818C33.7591 10.315 33.8499 10.2651 33.9482 10.2357C34.0466 10.2063 34.1503 10.198 34.2522 10.2113C34.978 10.2113 35.7038 10.2113 36.4296 10.2113C39.9168 10.2305 43.404 10.2305 46.8912 10.2113C47.447 10.2113 48.0061 10.2113 48.5618 10.2113C49.232 10.2113 49.5001 10.4419 49.5132 11.0951C49.5295 11.9789 49.5524 12.8626 49.5132 13.7432C49.5132 13.8104 49.5132 13.8777 49.5132 13.9417C49.5132 17.9955 49.4903 22.0205 49.5132 26.0583H49.5099Z" fill="#E5E2DF"/>
<path d="M244.284 30.0865C243.594 30.0321 243.336 29.7663 243.303 29.1035V29.0298C243.303 28.1044 243.303 27.1822 243.342 26.2568C243.378 25.0273 243.378 23.7977 243.388 22.5681C243.412 20.4462 243.412 18.3243 243.388 16.2024C243.352 13.961 243.303 11.6971 243.221 9.44288C243.211 8.26279 243.036 7.08962 242.701 5.95585C242.498 5.24147 242.148 4.57531 241.672 3.99826C241.197 3.4212 240.606 2.94542 239.936 2.6001C238.875 2.08357 237.715 1.79223 236.532 1.74516C235.329 1.66831 234.123 1.63308 232.916 1.59466C231.71 1.55624 230.455 1.51461 229.222 1.4954C227.002 1.46338 224.782 1.42815 222.563 1.42495C218.966 1.42495 215.403 1.39934 211.823 1.46978C210.515 1.49219 209.208 1.46978 207.926 1.51461C205.706 1.56584 203.486 1.57865 201.266 1.62028C200.246 1.63051 199.231 1.75404 198.239 1.98851C196.813 2.28917 195.545 3.08394 194.669 4.22674C193.96 5.23826 193.525 6.40938 193.404 7.63053C193.191 9.39234 193.09 11.1655 193.103 12.9395C193.103 16.6731 193.103 20.4067 193.103 24.1467C193.103 24.864 193.129 25.5844 193.126 26.3017C193.171 27.3079 193.163 28.3157 193.103 29.3212C193.038 29.9392 192.704 30.2114 192.067 30.1826C191.799 30.1826 191.534 30.1057 191.266 30.0929C191.148 30.0738 191.027 30.0801 190.912 30.1114C190.797 30.1428 190.69 30.1983 190.599 30.2743C190.508 30.3502 190.435 30.4447 190.386 30.551C190.336 30.6574 190.31 30.7732 190.311 30.8902C190.273 31.6372 190.283 32.3858 190.341 33.1316C190.341 34.0058 190.37 34.88 190.341 35.7541C190.314 36.3945 190.233 37.0349 190.269 37.6754C190.259 37.9503 190.354 38.2189 190.535 38.429C190.716 38.6391 190.971 38.7757 191.249 38.8121C191.414 38.8488 191.581 38.8681 191.75 38.8697C192.332 38.8697 192.913 38.8697 193.495 38.8697C196.983 38.8697 200.462 38.8697 203.934 38.8697C208.805 38.8697 213.677 38.8697 218.551 38.8697C227.071 38.8409 235.591 38.8697 244.11 38.8697C244.228 38.8697 244.346 38.8889 244.463 38.8889C244.983 38.8889 245.513 38.9818 245.997 38.7032V30.1858C245.431 30.0993 244.856 30.1313 244.284 30.0865ZM234.607 29.1803C234.587 29.8207 234.28 30.1217 233.626 30.1409C232.89 30.1409 232.155 30.1409 231.422 30.1409H219.159H218.208C215.032 30.1409 211.858 30.1409 208.684 30.1409C206.828 30.1409 204.967 30.1409 203.127 30.1633C203.002 30.1633 202.875 30.1633 202.747 30.1633C202.624 30.1671 202.501 30.1456 202.386 30.1003C202.271 30.055 202.168 29.9868 202.081 29.9001C201.995 29.8134 201.928 29.71 201.884 29.5966C201.841 29.4831 201.822 29.3621 201.829 29.2412C201.777 28.3766 201.829 27.5088 201.829 26.6443C201.829 21.7558 201.829 16.8663 201.829 11.9757C201.829 11.7452 201.829 11.5146 201.829 11.2841C201.82 11.1632 201.836 11.0418 201.878 10.9275C201.919 10.8133 201.984 10.7088 202.069 10.6205C202.154 10.5323 202.257 10.4623 202.371 10.4151C202.485 10.3678 202.607 10.3442 202.731 10.3459C202.849 10.3395 202.967 10.3395 203.084 10.3459H213.873C218.812 10.3459 223.751 10.3459 228.692 10.3459C230.151 10.3459 231.612 10.3747 233.073 10.3202C233.318 10.316 233.563 10.3278 233.806 10.3555C234.335 10.4067 234.603 10.6981 234.61 11.2841C234.61 12.3888 234.61 13.4967 234.61 14.6046C234.61 17.1214 234.61 19.6403 234.61 22.1614C234.61 23.391 234.61 24.6206 234.61 25.8502C234.61 26.9101 234.61 27.9667 234.61 29.0234C234.607 29.049 234.61 29.1131 234.607 29.1803Z" fill="#E5E2DF"/>
<path d="M183.508 32.5875C183.539 32.0596 183.539 31.5304 183.508 31.0025C183.513 30.8732 183.489 30.7444 183.439 30.6248C183.388 30.5053 183.312 30.3979 183.215 30.31C183.118 30.222 183.003 30.1557 182.877 30.1155C182.752 30.0753 182.619 30.0622 182.488 30.0771C182.228 30.0894 181.969 30.1193 181.713 30.1667C181.599 30.1939 181.481 30.1968 181.366 30.1754C181.251 30.154 181.142 30.1087 181.046 30.0425C180.95 29.9764 180.87 29.891 180.811 29.792C180.752 29.693 180.715 29.5828 180.703 29.4687C180.667 29.2993 180.654 29.126 180.663 28.9532C180.663 26.9871 180.716 25.0211 180.709 23.0582C180.69 18.7707 180.794 14.4863 180.621 10.202C180.594 9.09581 180.474 7.99371 180.261 6.90706C180.039 5.6977 179.472 4.57446 178.627 3.66659C177.492 2.49464 176.047 1.98231 174.462 1.79339C172.819 1.60388 171.166 1.51512 169.512 1.52762C164.859 1.52762 160.207 1.52762 155.555 1.52762C153.882 1.52762 152.211 1.52762 150.54 1.52762C146.464 1.56924 142.367 1.40914 138.31 1.63649C137.406 1.66888 136.507 1.78575 135.626 1.98551C133.641 2.47222 132.141 3.5353 131.343 5.42771C130.909 6.53095 130.668 7.69788 130.63 8.87952C130.493 11.2106 130.464 13.5481 130.434 15.8824C130.398 18.649 130.382 21.4155 130.451 24.1821C130.483 25.5014 130.503 26.8238 130.526 28.1431C130.576 28.6109 130.557 29.0834 130.467 29.5456C130.437 29.6982 130.362 29.8386 130.25 29.9487C130.138 30.0589 129.995 30.1337 129.839 30.1635C129.547 30.2092 129.249 30.195 128.963 30.1219C128.107 29.9778 127.655 30.3204 127.626 31.1594C127.626 31.3067 127.626 31.454 127.626 31.6045C127.626 32.6611 127.688 33.7146 127.682 34.7745C127.682 35.6807 127.616 36.5869 127.597 37.493C127.577 38.3992 127.959 38.7963 128.8 38.8667C128.952 38.8748 129.105 38.8748 129.257 38.8667C132.268 38.8475 135.283 38.8667 138.297 38.8379C142.002 38.8187 145.707 38.8187 149.412 38.8379C153.13 38.8571 156.844 38.8379 160.557 38.8379C166.275 38.8123 172 38.8379 177.708 38.8379C178.558 38.8379 179.411 38.8379 180.265 38.8379C180.918 38.8379 181.599 38.8379 182.265 38.8379C182.932 38.8379 183.37 38.5337 183.498 37.9861C183.559 37.7368 183.581 37.4799 183.563 37.2241C183.457 35.6807 183.439 34.1328 183.508 32.5875ZM172.02 29.1005C172.02 29.8209 171.693 30.1251 170.97 30.1347C170.316 30.1347 169.662 30.1347 169.009 30.1347H142.854C142.004 30.1347 141.151 30.1347 140.298 30.1347C139.493 30.1347 139.196 29.8145 139.196 29.046C139.196 27.3201 139.225 25.5974 139.232 23.8715C139.232 21.2266 139.232 18.5839 139.232 15.9432C139.232 15.2388 139.232 14.5365 139.232 13.8363C139.232 13.119 139.212 12.3986 139.206 11.6813C139.206 11.4668 139.206 11.2522 139.238 11.0409C139.236 10.9471 139.252 10.8536 139.287 10.7662C139.322 10.6787 139.374 10.5989 139.441 10.5315C139.508 10.464 139.587 10.4104 139.676 10.3736C139.764 10.3368 139.859 10.3176 139.954 10.3172C140.072 10.3109 140.19 10.3109 140.308 10.3172H153.1H167.717H170.731H170.908C171.751 10.3172 172.026 10.5958 172.023 11.4284C172.023 15.2868 171.987 19.1421 171.984 23.0006C171.984 24.989 172.01 26.9775 172.023 28.9692L172.02 29.1005Z" fill="#E5E2DF"/>
<path d="M119.613 14.5183C119.528 12.6846 119.428 10.8477 119.312 9.00756C119.283 8.05895 119.167 7.11481 118.966 6.18656C118.505 4.32617 117.432 2.98451 115.566 2.30247C114.659 1.98602 113.711 1.7963 112.751 1.73891C110.891 1.60763 109.027 1.54999 107.164 1.49876C105.544 1.45393 103.924 1.43258 102.302 1.43472C99.4252 1.43472 96.545 1.43472 93.668 1.46354C91.2586 1.49235 88.8524 1.46354 86.4462 1.46354H83.7883C81.2807 1.46354 78.7732 1.46353 76.2689 1.63004C75.3762 1.67515 74.4885 1.78972 73.6143 1.97266C70.891 2.61307 69.3119 4.2141 68.8444 6.89101C68.674 8.13345 68.5736 9.38415 68.5436 10.6374C68.4096 12.7956 68.3377 14.957 68.305 17.1184C68.2723 19.2797 68.2592 21.5276 68.3213 23.7338C68.354 24.8897 68.3769 26.0425 68.4227 27.1984C68.4979 29.0876 68.5861 30.9736 68.7496 32.8564C68.8207 33.7497 69.0718 34.6204 69.4885 35.4181C70.3319 37.0191 71.7246 37.89 73.4475 38.3319C74.6951 38.6265 75.9765 38.7611 77.2595 38.7322C82.7061 38.7322 88.1528 38.7322 93.6059 38.7322C95.319 38.7322 97.0321 38.809 98.7452 38.8154C100.89 38.8154 103.035 38.8763 105.179 38.8507C107.324 38.825 109.531 38.7866 111.718 38.6745C112.677 38.6626 113.633 38.5575 114.572 38.3607C115.751 38.1125 116.825 37.5183 117.651 36.6573C118.632 35.5942 119.005 34.2973 119.149 32.9237C119.315 31.3483 119.414 29.7665 119.502 28.1846C119.623 26.0521 119.675 23.9131 119.705 21.7805C119.705 20.4261 119.705 19.0716 119.682 17.7171C119.662 16.6477 119.662 15.5846 119.613 14.5183ZM110.806 24.0284C110.806 25.4095 110.806 26.7885 110.806 28.1654C110.806 28.4856 110.806 28.8058 110.806 29.126C110.812 29.2467 110.793 29.3674 110.749 29.4804C110.705 29.5933 110.637 29.6961 110.551 29.782C110.464 29.8679 110.36 29.9351 110.245 29.9793C110.13 30.0235 110.007 30.0437 109.884 30.0386C109.344 30.0802 108.805 30.0386 108.265 30.0386C103.501 30.0386 98.7387 30.0386 93.9786 30.0386H81.9771H78.4299C78.3122 30.0386 78.1945 30.0386 78.0768 30.0386C77.9455 30.0482 77.8137 30.0299 77.6903 29.985C77.5668 29.9401 77.4547 29.8697 77.3616 29.7785C77.2685 29.6873 77.1966 29.5775 77.1508 29.4566C77.105 29.3358 77.0863 29.2066 77.0961 29.078C77.0339 27.858 77.0961 26.6348 77.0961 25.4149C77.0961 22.565 77.0961 19.7152 77.0961 16.8686C77.0961 15.6934 77.0797 14.5215 77.0961 13.3463C77.0961 12.6771 77.0307 12.0111 77.0961 11.3419C77.1614 10.6726 77.472 10.314 78.188 10.3076C79.6984 10.3076 81.2088 10.3076 82.7192 10.3076H97.5127H107.164C108.05 10.3076 108.932 10.3076 109.818 10.3076C110.472 10.3076 110.76 10.5958 110.799 11.2234C110.868 12.1039 110.799 12.9877 110.799 13.8715C110.815 17.256 110.806 20.6438 110.806 24.0284Z" fill="#E5E2DF"/>
</g>
<defs>
<clipPath id="clip0_115_67">
<rect width="246" height="40" fill="white"/>
</clipPath>
</defs>
</svg>
