<svg width="167" height="35" viewBox="0 0 167 35" fill="none" xmlns="http://www.w3.org/2000/svg">
<path d="M13.168 23.052C13.996 23.88 14.778 24.754 15.422 25.49C17.63 27.974 18.688 29.354 19.332 30.228L18.918 30.596C17.492 29.216 15.928 27.79 14.456 26.594C12.57 25.03 10.868 23.788 9.902 23.052C10.868 22.316 12.57 21.074 14.456 19.51C15.928 18.314 17.492 16.888 18.918 15.508L19.332 15.876C18.688 16.75 17.63 18.13 15.422 20.614C14.778 21.35 13.996 22.224 13.168 23.052ZM0.518 23.052C3.14 21.396 5.9 19.464 8.476 17.44C11.006 15.462 13.398 13.392 15.376 11.552L15.836 11.92C14.686 13.484 12.8 15.738 9.626 18.958C8.43 20.2 6.958 21.58 5.348 23.052C6.958 24.524 8.43 25.904 9.626 27.146C12.8 30.366 14.686 32.62 15.836 34.184L15.376 34.552C13.398 32.712 11.006 30.642 8.476 28.664C5.9 26.64 3.14 24.708 0.518 23.052ZM53.4852 29.262L53.7612 31.746C50.3112 33.77 46.6772 34.644 42.5832 34.644C31.3132 34.644 25.6092 27.514 25.6092 17.67C25.6092 9.988 29.6572 0.00599897 42.8132 0.00599897C45.7112 0.00599897 48.9312 0.465999 53.0252 2.444L52.7492 5.02C50.4032 2.306 47.1832 0.557997 42.1232 0.557997C33.5672 0.557997 29.8872 8.516 29.8872 17.394C29.8872 28.94 36.0052 34.092 42.5832 34.092C47.4132 34.092 50.9092 32.344 53.4852 29.262ZM64.1285 34H60.9545V0.741998H81.5625L81.7005 3.226C79.1245 1.754 76.2265 1.294 70.8445 1.294C70.2005 1.294 68.9585 1.294 64.8645 1.294V14.772C66.8425 14.082 69.0965 13.576 71.9945 13.576C82.0225 13.576 84.8745 18.36 84.8745 23.42C84.8745 28.25 81.7465 34.23 71.2125 34.23C70.2465 34.23 68.9125 34.138 67.6245 34.092C66.3365 34.046 65.0945 34 64.1285 34ZM80.5965 23.604C80.5965 17.256 77.2385 14.22 71.0285 14.22C69.3265 14.22 66.8885 14.542 64.8645 15.37V33.08C67.0725 33.586 69.0965 33.678 71.0285 33.678C76.5485 33.678 80.5965 29.86 80.5965 23.604ZM95.4563 33.448H98.4003C102.862 33.448 109.348 33.264 113.58 31.286L113.074 34H91.5463V0.741998H112.43L112.568 3.226C109.44 1.386 105.438 1.294 100.562 1.294H95.4563V16.29H98.5383C101.344 16.29 106.266 15.876 107.6 15.6V17.44C106.266 17.21 101.344 16.842 98.5383 16.842H95.4563V33.448ZM141.982 10.08C141.982 15.6 137.336 20.66 128.918 20.66C127.262 20.66 125.33 20.568 123.398 20.108V34H119.488V0.741998H119.902C122.8 0.695998 126.572 0.235999 129.378 0.235999C139.13 0.235999 141.982 5.48 141.982 10.08ZM137.704 10.08C137.704 4.008 134.346 0.787997 128.642 0.787997C126.94 0.787997 125.1 1.064 123.398 1.478V19.602C125.33 20.062 127.17 20.108 128.734 20.108C134.07 20.108 137.704 16.612 137.704 10.08ZM153.672 23.052C152.844 22.224 152.062 21.35 151.418 20.614C149.21 18.13 148.152 16.75 147.508 15.876L147.922 15.508C149.348 16.888 150.912 18.314 152.384 19.51C154.27 21.074 155.972 22.316 156.938 23.052C155.972 23.788 154.27 25.03 152.384 26.594C150.912 27.79 149.348 29.216 147.922 30.596L147.508 30.228C148.152 29.354 149.21 27.974 151.418 25.49C152.062 24.754 152.844 23.88 153.672 23.052ZM166.322 23.052C163.7 24.708 160.94 26.64 158.364 28.664C155.834 30.642 153.442 32.712 151.464 34.552L151.004 34.184C152.154 32.62 154.04 30.366 157.214 27.146C158.41 25.904 159.882 24.524 161.492 23.052C159.882 21.58 158.41 20.2 157.214 18.958C154.04 15.738 152.154 13.484 151.004 11.92L151.464 11.552C153.442 13.392 155.834 15.462 158.364 17.44C160.94 19.464 163.7 21.396 166.322 23.052Z" fill="#E5E2DF"/>
</svg>
