<svg width="355" height="23" viewBox="0 0 355 23" fill="none" xmlns="http://www.w3.org/2000/svg">
<g clip-path="url(#clip0_115_58)">
<path d="M9.42478 6.479V19.6149H3.38576V6.479H0V22.6762H14.6499V19.6149H12.8105V6.479H9.42478Z" fill="#E5E2DF"/>
<path d="M74.2751 0L71.6218 3.85493H75.1378L77.8073 0H74.2751Z" fill="#E5E2DF"/>
<path d="M26.7279 22.6759V12.7794L19.7448 22.6759H17.3032V6.47873H20.5587V16.3914L27.5093 6.47873H29.9509V22.6759H26.7279ZM48.9144 6.47873V22.6759H45.6589V12.1639L41.0686 19.6956H40.6942L36.1202 12.1801V22.6759H32.8646V6.47873H36.1202L40.8081 14.14L45.5775 6.47873H48.9144ZM62.4249 22.6759L61.4482 19.7604H54.9372L53.9605 22.6759H50.4608L56.158 6.47873H60.2274L65.9409 22.6759H62.4249ZM55.9138 16.7639H60.3739L58.209 10.1393L55.9138 16.7639ZM76.9283 22.6759V12.7794L69.994 22.6759H67.5524V6.47873H70.8079V16.3914L77.6934 6.47873H80.135V22.6759H76.9283ZM81.9093 22.6759V19.7118C82.2901 19.8086 82.6895 19.8058 83.0688 19.7036C83.4482 19.6015 83.7945 19.4034 84.0742 19.1287C84.6508 18.2109 84.9028 17.1278 84.7904 16.0513V6.47873H95.8755V22.6759H92.62V9.5238H87.9809V16.0027C87.9971 17.1679 87.8211 18.3279 87.46 19.4365C87.2016 20.2685 86.7104 21.0102 86.0438 21.5745C85.4845 22.0172 84.8344 22.3324 84.1393 22.4977C83.4101 22.6741 82.6574 22.7342 81.9093 22.6759ZM112.609 20.5703C111.424 21.7578 109.911 22.5672 108.262 22.8952C106.612 23.2232 104.903 23.055 103.35 22.412C101.797 21.769 100.472 20.6804 99.5441 19.285C98.6159 17.8896 98.1264 16.2507 98.1381 14.5773C98.1381 12.3435 99.0299 10.2012 100.617 8.62169C102.205 7.04216 104.358 6.15479 106.603 6.15479C108.847 6.15479 111 7.04216 112.588 8.62169C114.175 10.2012 115.067 12.3435 115.067 14.5773C115.093 15.6907 114.889 16.7976 114.466 17.8288C114.043 18.8599 113.411 19.7932 112.609 20.5703ZM102.842 18.3837C103.585 19.1288 104.535 19.6353 105.57 19.8378C106.604 20.0404 107.676 19.9296 108.647 19.5198C109.618 19.1101 110.443 18.4201 111.016 17.5391C111.588 16.6581 111.883 15.6264 111.86 14.5773C111.884 13.871 111.762 13.1674 111.502 12.5099C111.241 11.8524 110.848 11.2551 110.346 10.7548C109.339 9.78786 107.994 9.24752 106.594 9.24752C105.195 9.24752 103.85 9.78786 102.842 10.7548C102.341 11.2551 101.948 11.8524 101.687 12.5099C101.427 13.1674 101.305 13.871 101.329 14.5773C101.306 15.281 101.429 15.9819 101.689 16.6366C101.95 17.2912 102.342 17.8858 102.842 18.3837ZM121.887 22.6759V19.7118C122.268 19.8103 122.668 19.8082 123.047 19.706C123.427 19.6037 123.773 19.4048 124.052 19.1287C124.641 18.2159 124.894 17.1286 124.768 16.0513V6.47873H135.854V22.6759H132.598V9.5238H127.959V16.0027C127.98 17.167 127.809 18.3269 127.454 19.4365C127.196 20.2685 126.705 21.0102 126.038 21.5745C125.47 22.0128 124.816 22.3274 124.117 22.4977C123.388 22.6746 122.635 22.7348 121.887 22.6759ZM150.373 6.47873V22.6759H147.118V17.0555H145.327L141.616 22.6759H137.97L141.941 16.6992C140.926 16.3372 140.046 15.6762 139.418 14.8041C138.753 13.956 138.381 12.9159 138.36 11.84C138.365 11.1276 138.511 10.423 138.79 9.76703C139.069 9.11106 139.477 8.51667 139.988 8.01819C140.5 7.51971 141.105 7.12701 141.77 6.86278C142.435 6.59855 143.146 6.46802 143.862 6.47873H150.373ZM143.862 14.2534H147.118V9.39422H143.862C143.556 9.38414 143.252 9.44132 142.97 9.5617C142.689 9.68209 142.438 9.8627 142.234 10.0907C141.801 10.5504 141.567 11.1614 141.583 11.7914C141.57 12.4258 141.803 13.0409 142.234 13.5083C142.434 13.7431 142.683 13.9304 142.965 14.0566C143.247 14.1827 143.553 14.2444 143.862 14.2372V14.2534ZM169.109 6.47873H172.364V22.6759H153.401V6.47873H156.656V19.6308H161.312V6.47873H164.567V19.6308H169.223L169.109 6.47873ZM178.566 19.6308H185.435V22.6759H175.359V6.47873H185.321V9.5238H178.566V12.9576H184.735V15.9703H178.566V19.6308ZM196.96 6.47873H200.216V22.6759H196.96V15.9541H190.921V22.6759H187.665V6.47873H190.921V12.9576H196.96V6.47873ZM215.923 22.6759H212.212L206.401 15.0794V22.6759H203.145V6.47873H206.401V13.6379L211.984 6.47873H215.679L209.657 14.3506L215.923 22.6759ZM229.825 20.5703C228.642 21.7602 227.129 22.5719 225.48 22.9012C223.831 23.2306 222.121 23.0626 220.568 22.419C219.016 21.7753 217.692 20.6851 216.766 19.2881C215.84 17.8911 215.354 16.2508 215.37 14.5773C215.37 12.3435 216.262 10.2012 217.849 8.62169C219.437 7.04216 221.59 6.15479 223.834 6.15479C226.079 6.15479 228.232 7.04216 229.82 8.62169C231.407 10.2012 232.299 12.3435 232.299 14.5773C232.323 15.6919 232.116 16.7995 231.69 17.8307C231.264 18.8619 230.629 19.7946 229.825 20.5703ZM220.058 18.3837C220.797 19.1372 221.748 19.6513 222.785 19.8586C223.823 20.0658 224.899 19.9567 225.874 19.5455C226.848 19.1343 227.675 18.4401 228.246 17.5537C228.817 16.6673 229.107 15.6299 229.076 14.5773C229.1 13.871 228.978 13.1674 228.717 12.5099C228.457 11.8524 228.064 11.2551 227.562 10.7548C226.557 9.7889 225.215 9.24902 223.818 9.24902C222.421 9.24902 221.079 9.7889 220.074 10.7548C219.573 11.2551 219.179 11.8524 218.919 12.5099C218.659 13.1674 218.537 13.871 218.56 14.5773C218.538 15.281 218.661 15.9819 218.921 16.6366C219.181 17.2912 219.574 17.8858 220.074 18.3837H220.058ZM252.613 6.46253V22.6759H249.358V9.5238H243.596V22.6759H240.34V6.47873L252.613 6.46253ZM266.124 22.6597L265.147 19.7442H258.636L257.659 22.6597H254.176L259.889 6.46253H263.861L269.591 22.6597H266.124ZM259.613 16.7477H264.073L261.843 10.1231L259.613 16.7477ZM277.209 6.47873C277.944 6.46762 278.674 6.60549 279.354 6.88394C280.034 7.1624 280.65 7.57561 281.164 8.09845C281.687 8.59875 282.101 9.20038 282.381 9.8662C282.661 10.532 282.801 11.2479 282.792 11.9696C282.801 12.6913 282.661 13.4071 282.381 14.0729C282.101 14.7388 281.687 15.3404 281.164 15.8407C280.65 16.3635 280.034 16.7768 279.354 17.0552C278.674 17.3337 277.944 17.4715 277.209 17.4604H274.344V22.6759H271.089V6.47873H277.209ZM277.209 14.383C277.513 14.38 277.814 14.3169 278.093 14.1973C278.373 14.0778 278.625 13.9041 278.837 13.6865C279.29 13.2111 279.536 12.5763 279.52 11.921C279.531 11.5962 279.476 11.2725 279.358 10.9693C279.241 10.666 279.064 10.3893 278.837 10.1555C278.625 9.93786 278.373 9.76421 278.093 9.64464C277.814 9.52508 277.513 9.46198 277.209 9.45901H274.344V14.3182L277.209 14.383ZM295.342 6.47873V9.5238H290.947V22.6759H287.692V9.5238H283.313V6.47873H295.342ZM306.395 6.47873H309.65V22.6759H306.395V15.9541H300.34V22.6759H297.084V6.47873H300.34V12.9576H306.395V6.47873ZM315.787 19.6146H322.656V22.6759H312.58V6.47873H322.542V9.5238H315.787V12.9576H321.956V15.9703H315.787V19.6146ZM331.039 6.47873C331.774 6.46762 332.504 6.60549 333.184 6.88394C333.864 7.1624 334.48 7.57561 334.995 8.09845C335.518 8.59875 335.932 9.20038 336.212 9.8662C336.492 10.532 336.631 11.2479 336.622 11.9696C336.631 12.6913 336.492 13.4071 336.212 14.0729C335.932 14.7388 335.518 15.3404 334.995 15.8407C334.48 16.3635 333.864 16.7768 333.184 17.0552C332.504 17.3337 331.774 17.4715 331.039 17.4604H328.174V22.6759H324.919V6.47873H331.039ZM331.039 14.383C331.653 14.3734 332.238 14.1231 332.667 13.6865C333.109 13.2049 333.348 12.5729 333.334 11.921C333.353 11.2682 333.113 10.6344 332.667 10.1555C332.238 9.71888 331.653 9.46857 331.039 9.45901H328.174V14.3182L331.039 14.383ZM338.69 22.6921V6.47873H341.945V11.8076H344.81C345.545 11.7965 346.275 11.9344 346.955 12.2128C347.635 12.4913 348.251 12.9045 348.766 13.4273C349.797 14.454 350.377 15.8465 350.377 17.2984C350.377 18.7504 349.797 20.1429 348.766 21.1696C348.251 21.6924 347.635 22.1056 346.955 22.3841C346.275 22.6625 345.545 22.8004 344.81 22.7893L338.69 22.6921ZM351.81 22.6921V6.47873H355.065V22.6759L351.81 22.6921ZM341.831 19.6956H344.696C345.001 19.6945 345.302 19.6322 345.581 19.5125C345.861 19.3929 346.114 19.2182 346.324 18.9992C346.765 18.5161 347.01 17.8866 347.01 17.2337C347.01 16.5807 346.765 15.9512 346.324 15.4682C346.114 15.2491 345.861 15.0745 345.581 14.9548C345.302 14.8351 345.001 14.7728 344.696 14.7717H341.831V19.6956Z" fill="#E5E2DF"/>
</g>
<defs>
<clipPath id="clip0_115_58">
<rect width="355" height="23" fill="white"/>
</clipPath>
</defs>
</svg>
